PathFileType	4	(X/Y/Z)	C:\Users\italobelli\Desktop\GitHub\PTbot_officialCBL\Personal_Results\SHRUG23_noisy1.trc
DataRate	CameraRate	NumFrames	NumMarkers	Units	OrigDataRate	OrigDataStartFrame	OrigNumFrames
108.909091	108.909091	43	9	m	108.909091	301	600
Frame#	Time		gu		centelbow		EpL		centpxt8		centijc7		ij		ts		aa		ai
			X1	Y1	Z1	X2	Y2	Z2	X3	Y3	Z3	X4	Y4	Z4	X5	Y5	Z5	X6	Y6	Z6	X7	Y7	Z7	X8	Y8	Z8	X9	Y9	Z9

301	2.7546	-0.11185	0.028888	0.14459	-0.10709	-0.21253	0.1913	-0.10062	-0.20196	0.22106	-0.046816	-0.15316	-0.008669	-0.046816	0.031938	-0.008669	0	0	0	-0.12211	0.037611	0.0093352	-0.14399	0.058003	0.12488	-0.12862	-0.073241	0.032955
302	2.7638	-0.11192	0.028812	0.14456	-0.10712	-0.2127	0.19121	-0.10062	-0.20211	0.22095	-0.046816	-0.15316	-0.008669	-0.046816	0.031938	-0.008669	0	0	0	-0.12217	0.03762	0.0094417	-0.14403	0.057922	0.12501	-0.12867	-0.073251	0.032968
303	2.773	-0.11199	0.028734	0.14454	-0.10715	-0.21287	0.19112	-0.10062	-0.20227	0.22084	-0.046816	-0.15316	-0.008669	-0.046816	0.031938	-0.008669	0	0	0	-0.12223	0.03763	0.0095514	-0.14406	0.05784	0.12514	-0.12872	-0.073262	0.032983
304	2.7821	-0.11206	0.028655	0.14452	-0.10718	-0.21304	0.19103	-0.10063	-0.20242	0.22074	-0.046816	-0.15316	-0.008669	-0.046816	0.031938	-0.008669	0	0	0	-0.12229	0.037639	0.0096644	-0.1441	0.057756	0.12527	-0.12877	-0.073272	0.033001
305	2.7913	-0.11213	0.028575	0.1445	-0.10721	-0.21322	0.19093	-0.10063	-0.20257	0.22063	-0.046816	-0.15316	-0.008669	-0.046816	0.031938	-0.008669	0	0	0	-0.12236	0.037648	0.0097804	-0.14413	0.057671	0.12541	-0.12882	-0.073283	0.033021
306	2.8005	-0.1122	0.028493	0.14448	-0.10725	-0.21339	0.19084	-0.10064	-0.20273	0.22052	-0.046816	-0.15316	-0.008669	-0.046816	0.031938	-0.008669	0	0	0	-0.12242	0.037657	0.0098995	-0.14417	0.057584	0.12555	-0.12887	-0.073293	0.033044
307	2.8097	-0.11226	0.02841	0.14446	-0.10728	-0.21357	0.19074	-0.10065	-0.20289	0.22041	-0.046816	-0.15316	-0.008669	-0.046816	0.031938	-0.008669	0	0	0	-0.12249	0.037666	0.010022	-0.1442	0.057496	0.12569	-0.12892	-0.073304	0.033068
308	2.8189	-0.11233	0.028324	0.14444	-0.10732	-0.21375	0.19064	-0.10067	-0.20305	0.2203	-0.046816	-0.15316	-0.008669	-0.046816	0.031938	-0.008669	0	0	0	-0.12255	0.037674	0.010147	-0.14424	0.057406	0.12584	-0.12898	-0.073316	0.033096
309	2.828	-0.11239	0.028237	0.14442	-0.10737	-0.21394	0.19054	-0.10069	-0.20322	0.22019	-0.046816	-0.15316	-0.008669	-0.046816	0.031938	-0.008669	0	0	0	-0.12262	0.037683	0.010275	-0.14427	0.057315	0.12599	-0.12903	-0.073327	0.033125
310	2.8372	-0.11246	0.028148	0.14441	-0.10742	-0.21413	0.19044	-0.10071	-0.20339	0.22008	-0.046816	-0.15316	-0.008669	-0.046816	0.031938	-0.008669	0	0	0	-0.12269	0.037691	0.010405	-0.1443	0.057221	0.12614	-0.12909	-0.073339	0.033157
311	2.8464	-0.11252	0.028057	0.1444	-0.10748	-0.21432	0.19034	-0.10074	-0.20356	0.21996	-0.046816	-0.15316	-0.008669	-0.046816	0.031938	-0.008669	0	0	0	-0.12277	0.037699	0.010539	-0.14433	0.057126	0.12629	-0.12915	-0.073351	0.033191
312	2.8556	-0.11258	0.027965	0.14439	-0.10754	-0.21451	0.19024	-0.10077	-0.20374	0.21985	-0.046816	-0.15316	-0.008669	-0.046816	0.031938	-0.008669	0	0	0	-0.12284	0.037706	0.010675	-0.14437	0.057029	0.12645	-0.12921	-0.073364	0.033228
313	2.8648	-0.11264	0.02787	0.14438	-0.1076	-0.21471	0.19014	-0.10081	-0.20392	0.21973	-0.046816	-0.15316	-0.008669	-0.046816	0.031938	-0.008669	0	0	0	-0.12291	0.037714	0.010813	-0.1444	0.05693	0.12661	-0.12927	-0.073377	0.033267
314	2.874	-0.11269	0.027773	0.14437	-0.10768	-0.21491	0.19003	-0.10086	-0.2041	0.21961	-0.046816	-0.15316	-0.008669	-0.046816	0.031938	-0.008669	0	0	0	-0.12299	0.03772	0.010954	-0.14442	0.056829	0.12678	-0.12933	-0.07339	0.033308
315	2.8831	-0.11275	0.027674	0.14437	-0.10776	-0.21512	0.18992	-0.10091	-0.20429	0.21949	-0.046816	-0.15316	-0.008669	-0.046816	0.031938	-0.008669	0	0	0	-0.12306	0.037727	0.011098	-0.14445	0.056726	0.12695	-0.12939	-0.073404	0.033351
316	2.8923	-0.1128	0.027572	0.14437	-0.10785	-0.21533	0.18981	-0.10097	-0.20448	0.21937	-0.046816	-0.15316	-0.008669	-0.046816	0.031938	-0.008669	0	0	0	-0.12314	0.037733	0.011244	-0.14448	0.056621	0.12712	-0.12946	-0.073418	0.033397
317	2.9015	-0.11284	0.027469	0.14437	-0.10794	-0.21554	0.1897	-0.10103	-0.20467	0.21924	-0.046816	-0.15316	-0.008669	-0.046816	0.031938	-0.008669	0	0	0	-0.12322	0.037738	0.011392	-0.1445	0.056513	0.12729	-0.12953	-0.073432	0.033445
318	2.9107	-0.11289	0.027363	0.14438	-0.10805	-0.21576	0.18959	-0.10111	-0.20487	0.21911	-0.046816	-0.15316	-0.008669	-0.046816	0.031938	-0.008669	0	0	0	-0.1233	0.037743	0.011543	-0.14453	0.056403	0.12746	-0.12959	-0.073448	0.033495
319	2.9199	-0.11293	0.027254	0.14439	-0.10816	-0.21598	0.18947	-0.10119	-0.20508	0.21899	-0.046816	-0.15316	-0.008669	-0.046816	0.031938	-0.008669	0	0	0	-0.12338	0.037748	0.011696	-0.14455	0.056291	0.12764	-0.12966	-0.073463	0.033547
320	2.929	-0.11297	0.027143	0.1444	-0.10828	-0.21621	0.18936	-0.10128	-0.20529	0.21886	-0.046816	-0.15316	-0.008669	-0.046816	0.031938	-0.008669	0	0	0	-0.12347	0.037752	0.011851	-0.14457	0.056177	0.12782	-0.12973	-0.07348	0.033601
321	2.9382	-0.11301	0.027029	0.14442	-0.10841	-0.21644	0.18924	-0.10138	-0.2055	0.21872	-0.046816	-0.15316	-0.008669	-0.046816	0.031938	-0.008669	0	0	0	-0.12355	0.037755	0.012008	-0.14459	0.05606	0.12801	-0.12981	-0.073496	0.033658
322	2.9474	-0.11304	0.026913	0.14444	-0.10856	-0.21668	0.18912	-0.10149	-0.20572	0.21859	-0.046816	-0.15316	-0.008669	-0.046816	0.031938	-0.008669	0	0	0	-0.12363	0.037758	0.012167	-0.14461	0.05594	0.12819	-0.12988	-0.073514	0.033717
323	2.9566	-0.11307	0.026794	0.14446	-0.10871	-0.21692	0.18899	-0.10162	-0.20595	0.21845	-0.046816	-0.15316	-0.008669	-0.046816	0.031938	-0.008669	0	0	0	-0.12372	0.03776	0.012328	-0.14463	0.055818	0.12838	-0.12996	-0.073532	0.033777
324	2.9658	-0.11309	0.026673	0.14449	-0.10888	-0.21717	0.18887	-0.10175	-0.20618	0.21831	-0.046816	-0.15316	-0.008669	-0.046816	0.031938	-0.008669	0	0	0	-0.12381	0.037762	0.012491	-0.14464	0.055694	0.12857	-0.13003	-0.073551	0.03384
325	2.975	-0.11311	0.026548	0.14452	-0.10905	-0.21742	0.18874	-0.10189	-0.20641	0.21817	-0.046816	-0.15316	-0.008669	-0.046816	0.031938	-0.008669	0	0	0	-0.1239	0.037763	0.012655	-0.14465	0.055566	0.12876	-0.13011	-0.07357	0.033905
326	2.9841	-0.11312	0.026421	0.14456	-0.10924	-0.21768	0.1886	-0.10205	-0.20666	0.21803	-0.046816	-0.15316	-0.008669	-0.046816	0.031938	-0.008669	0	0	0	-0.12398	0.037763	0.012822	-0.14467	0.055436	0.12896	-0.13019	-0.07359	0.033972
327	2.9933	-0.11314	0.026291	0.14461	-0.10944	-0.21794	0.18847	-0.10222	-0.20691	0.21788	-0.046816	-0.15316	-0.008669	-0.046816	0.031938	-0.008669	0	0	0	-0.12407	0.037762	0.01299	-0.14467	0.055303	0.12916	-0.13027	-0.073611	0.034041
328	3.0025	-0.11314	0.026155	0.14465	-0.10966	-0.21822	0.18833	-0.1024	-0.20716	0.21773	-0.046816	-0.15316	-0.008669	-0.046816	0.031938	-0.008669	0	0	0	-0.12417	0.03776	0.013162	-0.14468	0.055166	0.12936	-0.13036	-0.073633	0.034114
329	3.0117	-0.11312	0.025968	0.14472	-0.10992	-0.21854	0.18818	-0.10262	-0.20749	0.21756	-0.046816	-0.15316	-0.008669	-0.046816	0.031938	-0.008669	0	0	0	-0.12427	0.037753	0.013376	-0.14465	0.05499	0.1296	-0.13049	-0.073657	0.034206
330	3.0209	-0.11306	0.025713	0.14482	-0.11024	-0.21893	0.18801	-0.10287	-0.20789	0.21737	-0.046816	-0.15316	-0.008669	-0.046816	0.031938	-0.008669	0	0	0	-0.12441	0.037738	0.013647	-0.14456	0.054764	0.1299	-0.13069	-0.073685	0.034326
331	3.0301	-0.11297	0.025395	0.14494	-0.11061	-0.21939	0.18782	-0.10315	-0.20838	0.21716	-0.046816	-0.15316	-0.008669	-0.046816	0.031938	-0.008669	0	0	0	-0.12456	0.037716	0.013972	-0.14443	0.054491	0.13025	-0.13095	-0.073715	0.034471
332	3.0392	-0.11285	0.025016	0.14509	-0.11103	-0.2199	0.18762	-0.10347	-0.20894	0.21692	-0.046816	-0.15316	-0.008669	-0.046816	0.031938	-0.008669	0	0	0	-0.12474	0.037688	0.014348	-0.14424	0.054173	0.13065	-0.13128	-0.073749	0.03464
333	3.0484	-0.11269	0.024577	0.14526	-0.1115	-0.22048	0.1874	-0.10382	-0.20957	0.21667	-0.046816	-0.15316	-0.008669	-0.046816	0.031938	-0.008669	0	0	0	-0.12493	0.037653	0.014773	-0.14402	0.053811	0.13111	-0.13166	-0.073785	0.034832
334	3.0576	-0.11251	0.024083	0.14545	-0.11201	-0.22111	0.18716	-0.1042	-0.21028	0.2164	-0.046816	-0.15316	-0.008669	-0.046816	0.031938	-0.008669	0	0	0	-0.12514	0.037612	0.015245	-0.14375	0.053407	0.1316	-0.1321	-0.073823	0.035047
335	3.0668	-0.1123	0.023535	0.14566	-0.11257	-0.22179	0.18691	-0.1046	-0.21105	0.21611	-0.046816	-0.15316	-0.008669	-0.046816	0.031938	-0.008669	0	0	0	-0.12538	0.037565	0.015762	-0.14343	0.052964	0.13215	-0.13259	-0.073865	0.035283
336	3.076	-0.11206	0.022936	0.14589	-0.11316	-0.22253	0.18665	-0.10504	-0.21188	0.2158	-0.046816	-0.15316	-0.008669	-0.046816	0.031938	-0.008669	0	0	0	-0.12562	0.037512	0.016321	-0.14308	0.052484	0.13273	-0.13313	-0.073908	0.035539
337	3.0851	-0.1118	0.022289	0.14614	-0.1138	-0.22331	0.18638	-0.1055	-0.21277	0.21548	-0.046816	-0.15316	-0.008669	-0.046816	0.031938	-0.008669	0	0	0	-0.12589	0.037454	0.016921	-0.14269	0.051968	0.13335	-0.13372	-0.073954	0.035814
338	3.0943	-0.11151	0.021596	0.14641	-0.11447	-0.22414	0.18609	-0.10598	-0.21372	0.21514	-0.046816	-0.15316	-0.008669	-0.046816	0.031938	-0.008669	0	0	0	-0.12617	0.037391	0.017558	-0.14227	0.051418	0.13401	-0.13435	-0.074002	0.036107
339	3.1035	-0.1112	0.020861	0.1467	-0.11518	-0.22501	0.1858	-0.10649	-0.21473	0.21479	-0.046816	-0.15316	-0.008669	-0.046816	0.031938	-0.008669	0	0	0	-0.12647	0.037323	0.01823	-0.14181	0.050837	0.13471	-0.13503	-0.074052	0.036417
340	3.1127	-0.11087	0.020086	0.147	-0.11592	-0.22591	0.18549	-0.10702	-0.21578	0.21443	-0.046816	-0.15316	-0.008669	-0.046816	0.031938	-0.008669	0	0	0	-0.12678	0.037251	0.018936	-0.14132	0.050227	0.13544	-0.13574	-0.074104	0.036743
341	3.1219	-0.11052	0.019273	0.14731	-0.11669	-0.22686	0.18517	-0.10757	-0.21688	0.21405	-0.046816	-0.15316	-0.008669	-0.046816	0.031938	-0.008669	0	0	0	-0.1271	0.037174	0.019673	-0.1408	0.049589	0.1362	-0.1365	-0.074158	0.037084
342	3.1311	-0.11015	0.018425	0.14764	-0.11748	-0.22784	0.18485	-0.10813	-0.21802	0.21367	-0.046816	-0.15316	-0.008669	-0.046816	0.031938	-0.008669	0	0	0	-0.12743	0.037093	0.020439	-0.14026	0.048926	0.13698	-0.13728	-0.074213	0.037438
343	3.1402	-0.10977	0.017545	0.14799	-0.1183	-0.22885	0.18452	-0.10871	-0.2192	0.21327	-0.046816	-0.15316	-0.008669	-0.046816	0.031938	-0.008669	0	0	0	-0.12777	0.037008	0.021231	-0.13968	0.048239	0.13779	-0.1381	-0.07427	0.037805
